<svg width="180" height="180" viewBox="0 0 180 180" fill="none" xmlns="http://www.w3.org/2000/svg">
  <style>
    @media (prefers-color-scheme: dark) {
      .letter {
        fill: #fff;
      }
      .subh {
        fill: rgb(63, 226, 210);
      }
    }
  </style>
  <path fill-rule="evenodd" clip-rule="evenodd" d="M63.9499 54.2999C62.5499 53.4999 61.6499 51.9999 61.6499 50.2999C61.6499 47.7999 63.7499 45.7 66.2499 45.7C66.9499 45.7 67.5499 45.8 68.0499 46.1L87.3499 35C88.2499 34.5 89.3499 34.2 90.3499 34.2C91.4499 34.2 92.4499 34.5 93.3499 35L109.75 44.5C108.55 45.3 107.65 46.4999 107.05 47.8999L91.1499 38.7C90.8499 38.5 90.5499 38.5 90.2499 38.5C89.9499 38.5 89.6499 38.6 89.3499 38.7L70.5499 49.5C70.5499 49.8 70.6499 49.9999 70.6499 50.2999C70.6499 52.2999 69.3499 53.9 67.6499 54.6C67.5499 54.6 67.3499 54.7 67.2499 54.7H67.1499C67.0499 54.7 66.8499 54.7999 66.7499 54.7999H66.6499C66.4499 54.7999 66.3499 54.7999 66.1499 54.7999C65.9499 54.7999 65.7499 54.7999 65.5499 54.7999H65.4499C65.3499 54.7999 65.1499 54.8 65.0499 54.7H64.9499C64.6499 54.6 64.2499 54.4999 63.9499 54.2999ZM118.35 50.2999C118.35 51.6999 117.75 52.9 116.75 53.7V75.3999C116.75 77.5999 115.55 79.6 113.75 80.7L97.3499 90.1C97.3499 88.6 96.8499 87.1 95.9499 86L111.55 77C112.15 76.7 112.45 76.0999 112.45 75.3999V54.7C110.55 54.1 109.15 52.3999 109.15 50.2999C109.15 49.2999 109.45 48.4 110.05 47.6C110.15 47.5 110.25 47.3 110.35 47.2C110.65 46.9 110.85 46.7 111.15 46.5C111.15 46.5 111.25 46.4999 111.25 46.3999C111.35 46.2999 111.45 46.3 111.65 46.2C111.65 46.2 111.75 46.2 111.75 46.1C111.95 46 112.05 45.9999 112.25 45.8999C112.65 45.7999 113.15 45.7 113.65 45.7C116.25 45.7 118.35 47.7999 118.35 50.2999ZM94.9499 90.2999C94.9499 90.4999 94.9499 90.8 94.8499 91V91.1C94.4499 93.2 92.6499 94.8999 90.3499 94.8999C88.3499 94.8999 86.6499 93.5999 86.0499 91.7999L67.0499 80.7999C65.1499 79.6999 64.0499 77.7 64.0499 75.5V57C64.7499 57.2 65.5499 57.3999 66.2499 57.3999C66.9499 57.3999 67.6499 57.3 68.2499 57.1V75.5C68.2499 76.2 68.6499 76.8 69.1499 77.1L86.9499 87.3999C87.7499 86.3999 89.0499 85.7999 90.4499 85.7999C91.9499 85.7999 93.2499 86.5 94.1499 87.7C94.1499 87.7 94.1499 87.6999 94.1499 87.7999C94.2499 87.8999 94.2499 88 94.3499 88.1C94.3499 88.1 94.3499 88.2 94.4499 88.2C94.4499 88.2999 94.5499 88.3999 94.5499 88.3999C94.5499 88.3999 94.5499 88.5 94.6499 88.5C94.6499 88.6 94.7499 88.7 94.7499 88.7C94.7499 88.7999 94.7499 88.7999 94.8499 88.8999C94.8499 88.9999 94.9499 89 94.9499 89.1C94.9499 89.2 94.9499 89.1999 95.0499 89.2999C95.0499 89.3999 95.0499 89.4 95.0499 89.5C95.0499 89.6 95.0499 89.6999 95.0499 89.7999C95.0499 89.8999 95.0499 89.9 95.0499 90C94.9499 90 94.9499 90.0999 94.9499 90.2999Z" fill="#3FE2D2"/>
  <path fill-rule="evenodd" clip-rule="evenodd" d="M80.7328 75.953C80.422 76.2642 80.0143 76.42 79.6066 76.42C79.1997 76.42 78.7932 76.265 78.4825 75.9551C75.3661 72.8445 73.6499 68.7089 73.6499 64.3098C73.6499 59.911 75.3661 55.7754 78.4825 52.6649C79.1044 52.0442 80.1117 52.045 80.7328 52.6673C81.3535 53.2889 81.3523 54.2966 80.7303 54.9173C78.2165 57.4262 76.8321 60.7621 76.8321 64.3098C76.8321 67.8578 78.2165 71.1938 80.7303 73.7027C81.3527 74.3234 81.3535 75.3311 80.7328 75.953ZM103.468 64.3103C103.468 67.858 102.083 71.1939 99.5695 73.7028C98.9476 74.3235 98.9463 75.3312 99.567 75.9531C99.8782 76.2643 100.286 76.4201 100.693 76.4201C101.1 76.4201 101.507 76.2651 101.817 75.9552C104.934 72.8451 106.65 68.7095 106.65 64.3103C106.65 59.9116 104.934 55.7755 101.817 52.6654C101.195 52.0447 100.188 52.0455 99.567 52.6675C98.9463 53.2894 98.9476 54.2971 99.5695 54.9178C102.083 57.4267 103.468 60.7622 103.468 64.3103ZM83.2057 71.7353C82.7988 71.7353 82.3923 71.5803 82.0816 71.2704C80.219 69.4112 79.1931 66.9391 79.1931 64.3097C79.1935 61.6802 80.219 59.2086 82.0816 57.3494C82.7035 56.7287 83.7112 56.7296 84.3319 57.3519C84.9526 57.9738 84.9513 58.9811 84.3294 59.6018C83.0694 60.8598 82.3753 62.5317 82.3753 64.3097C82.3753 66.0881 83.0694 67.76 84.3294 69.0179C84.9513 69.6386 84.9526 70.6459 84.3319 71.2679C84.0211 71.5795 83.6134 71.7353 83.2057 71.7353ZM95.9679 71.268C96.2787 71.5796 96.6864 71.7354 97.0941 71.7354C97.501 71.7354 97.9075 71.5804 98.2183 71.2705C100.081 69.4113 101.107 66.9397 101.107 64.3102C101.107 61.6808 100.081 59.2087 98.2183 57.35C97.5963 56.7293 96.5886 56.7301 95.9679 57.352C95.3472 57.974 95.3485 58.9817 95.9704 59.6024C97.2304 60.8599 97.9245 62.5318 97.9245 64.3102C97.9245 66.0882 97.2304 67.7605 95.9704 69.0181C95.3485 69.6388 95.3472 70.646 95.9679 71.268ZM90.1542 69.2401C91.4184 69.2401 92.6826 68.7598 93.6451 67.7989C94.5786 66.8675 95.0924 65.6286 95.0924 64.3105C95.0924 62.9925 94.5786 61.7536 93.6451 60.8221C91.72 58.9008 88.588 58.9008 86.6629 60.8221C85.7294 61.7536 85.2156 62.9925 85.2156 64.3105C85.2156 65.6286 85.7294 66.8675 86.6629 67.7989C87.6254 68.7598 88.8896 69.2401 90.1542 69.2401ZM88.9108 63.0741C89.2538 62.7319 89.7038 62.5611 90.1542 62.5611C90.6042 62.5611 91.0542 62.7323 91.3969 63.0741C91.7279 63.4043 91.9102 63.8436 91.9102 64.3105C91.9102 64.7775 91.7279 65.2163 91.3973 65.5469C90.7115 66.231 89.5965 66.2306 88.9108 65.5469C88.5797 65.2163 88.3978 64.7775 88.3978 64.3105C88.3978 63.8436 88.5801 63.4048 88.9108 63.0741Z" fill="#3FE2D2"/>
  <path d="M16.262 125.584H28.9586V121.291H20.6714V108.234H16.262V125.584Z" class="letter" fill="#0B0D11"/>
  <path d="M30.855 108.234V125.584H35.2867V108.234H30.855Z" class="letter" fill="#0B0D11"/>
  <path d="M48.2584 125.584L55.2604 108.234H50.4299L46.0647 119.89L41.7217 108.234H36.8912L43.871 125.584H48.2584Z" class="letter" fill="#0B0D11"/>
  <path d="M56.8602 125.584H70.133V121.291H61.2919V119.067H68.5598V115.04H61.2919V112.549H70.133V108.234H56.8602V125.584Z" class="letter" fill="#0B0D11"/>
  <path d="M76.4341 116.909C76.4341 121.358 79.8021 125.095 84.1008 125.785C87.0922 126.786 89.1086 129.9 92.5874 129.9C94.1606 129.9 96.177 129.255 97.4179 127.542L94.072 124.828C93.6067 125.54 92.809 125.607 92.5652 125.607C91.8119 125.607 91.1028 125.206 90.3051 124.65C92.9863 123.071 94.7811 120.201 94.7811 116.909C94.7811 111.948 90.6596 107.9 85.6076 107.9C80.622 107.9 76.4341 111.948 76.4341 116.909ZM80.91 116.909C80.91 114.284 83.0151 112.193 85.6076 112.193C88.2665 112.193 90.3051 114.284 90.3051 116.909C90.3051 119.534 88.2665 121.625 85.6076 121.625C83.0151 121.625 80.91 119.534 80.91 116.909Z" class="letter" fill="#0B0D11"/>
  <path d="M108.166 108.234V117.732C108.166 120.246 106.948 121.625 104.621 121.625C102.317 121.625 101.12 120.246 101.12 117.732V108.234H96.6884V117.999C96.6884 122.47 99.436 125.918 104.621 125.918C109.784 125.918 112.576 122.47 112.576 117.999V108.234H108.166Z" class="letter" fill="#0B0D11"/>
  <path d="M115.269 125.584H128.541V121.291H119.7V119.067H126.968V115.04H119.7V112.549H128.541V108.234H115.269V125.584Z" class="letter" fill="#0B0D11"/>
  <path d="M130.965 108.234V125.584H135.375V120.935H137.635L140.914 125.584H146.21L142.465 120.335C144.792 119.267 145.878 116.998 145.878 114.573C145.878 111.125 143.839 108.234 139.408 108.234H130.965ZM139.164 112.282C140.937 112.282 141.601 113.283 141.601 114.618C141.601 115.819 140.937 116.909 139.164 116.909H135.375V112.282H139.164Z" class="letter" fill="#0B0D11"/>
  <path d="M150.864 108.234H145.657L152.482 119.222V125.584H156.891V119.222L163.738 108.234H158.509L154.675 114.529L150.864 108.234Z" class="letter" fill="#0B0D11"/>
  <path fill-rule="evenodd" clip-rule="evenodd" d="M108.4 135.9C110.7 135.9 112.5 137.7 112.5 139.9C112.5 141.4 111.7 142.6 110.5 143.4C110.584 143.442 110.663 143.483 110.738 143.523C111.025 143.675 111.263 143.8 111.5 143.8H111.5C111.6 143.8 112 143.8 112.2 143.5L113.7 144.7C113.1 145.5 112.2 145.8 111.5 145.8C110.546 145.8 109.841 145.302 109.151 144.815C108.684 144.486 108.225 144.161 107.7 144C105.8 143.7 104.3 142 104.3 140C104.3 137.7 106.1 135.9 108.4 135.9ZM108.4 142C109.6 142 110.5 141.1 110.5 139.9C110.5 138.7 109.6 137.8 108.4 137.8C107.2 137.8 106.3 138.7 106.3 139.9C106.3 141.1 107.2 142 108.4 142ZM64.1001 139.3H67.8001V143.8H66.2001V143.1C65.8001 143.7 65.0001 144 64.2001 144C62.0001 144 60.1001 142.2 60.1001 140C60.1001 137.8 62.0001 136 64.2001 136C65.5001 136 66.7001 136.6 67.5001 137.6L65.9001 138.7C65.5001 138.2 64.9001 137.9 64.2001 137.9C63.0001 137.9 62.1001 138.8 62.1001 140C62.1001 141.2 63.0001 142.1 64.2001 142.1C64.9001 142.1 65.5001 141.8 65.9001 141.2V141H64.1001V139.3ZM73.5002 136.1C75.5002 136.1 76.4002 137.4 76.4002 138.9C76.4002 140 75.9002 141 74.9002 141.5L76.6002 143.8H74.2002L72.7002 141.7H71.7002V143.8H69.7002V136.1H73.5002ZM71.7002 138V140H73.4002C74.2002 140 74.5002 139.5 74.5002 139C74.5002 138.4 74.2002 138 73.4002 138H71.7002ZM85.8001 143.8L82.7001 136.1H80.7001L77.6001 143.8H79.8001L80.2001 142.7H83.2001L83.6001 143.8H85.8001ZM80.8001 140.9L81.7001 138.6L82.5001 140.9H80.8001ZM87.3 136.1H90.7C92.8 136.1 93.7 137.5 93.7 139.1C93.7 140.7 92.7 142.1 90.7 142.1H89.3V143.9H87.3V136.1ZM89.3 137.9V140.3H90.6C91.4 140.3 91.7 139.8 91.7 139.1C91.7 138.5 91.4 137.9 90.6 137.9H89.3ZM102.6 143.8V136.1H100.6V139.1H97.4001V136.1H95.4001V143.8H97.4001V140.9H100.6V143.8H102.6ZM116.2 136.1H114.2V143.8H119.9V141.9H116.2V136.1Z" class="subh" fill="#7F818C"/>
</svg>
