<svg xmlns="http://www.w3.org/2000/svg" viewBox="0 0 139 83"><g  transform="translate(61)" fill="#d81692" stroke="#d81692"><circle cx="3" cy="3" r="3" stroke="none"/><circle cx="3" cy="3" r="2.5" fill="none"/></g><g  transform="translate(74 5)" fill="#d81692" stroke="#d81692"><circle cx="4.5" cy="4.5" r="4.5" stroke="none"/><circle cx="4.5" cy="4.5" r="4" fill="none"/></g><g  transform="translate(49 10)" fill="#d81692" stroke="#d81692"><circle cx="4.5" cy="4.5" r="4.5" stroke="none"/><circle cx="4.5" cy="4.5" r="4" fill="none"/></g><g  transform="translate(78 32)" fill="#d81692" stroke="#d81692"><circle cx="4" cy="4" r="4" stroke="none"/><circle cx="4" cy="4" r="3.5" fill="none"/></g><g  transform="translate(39 27)" fill="#d81692" stroke="#d81692"><circle cx="4.5" cy="4.5" r="4.5" stroke="none"/><circle cx="4.5" cy="4.5" r="4" fill="none"/></g><g  transform="translate(64 16)" fill="#d81692" stroke="#d81692"><circle cx="4" cy="4" r="4" stroke="none"/><circle cx="4" cy="4" r="3.5" fill="none"/></g><g  transform="translate(39 50)" fill="#d81692" stroke="#d81692"><circle cx="4.5" cy="4.5" r="4.5" stroke="none"/><circle cx="4.5" cy="4.5" r="4" fill="none"/></g><g  transform="translate(54 30)" fill="#d81692" stroke="#d81692"><circle cx="4" cy="4" r="4" stroke="none"/><circle cx="4" cy="4" r="3.5" fill="none"/></g><g  transform="translate(65 43)" fill="#d81692" stroke="#d81692"><circle cx="5" cy="5" r="5" stroke="none"/><circle cx="5" cy="5" r="4.5" fill="none"/></g><g  transform="translate(85 17)" fill="#d81692" stroke="#d81692"><circle cx="4.5" cy="4.5" r="4.5" stroke="none"/><circle cx="4.5" cy="4.5" r="4" fill="none"/></g><g  transform="translate(82 46)" fill="#d81692" stroke="#d81692"><circle cx="4.5" cy="4.5" r="4.5" stroke="none"/><circle cx="4.5" cy="4.5" r="4" fill="none"/></g><path  fill="none" stroke="#d81692" d="M43.5 54.5l27-7"/><path  fill="none" stroke="#d81692" d="M87.5 50.5l-17-3"/><g  transform="translate(92 32)" fill="#d81692" stroke="#d81692"><circle cx="4.5" cy="4.5" r="4.5" stroke="none"/><circle cx="4.5" cy="4.5" r="4" fill="none"/></g><path  fill="none" stroke="#d81692" d="M87.5 50.5l9.083-15"/><path  fill="none" stroke="#d81692" d="M78.583 36.5H96.5"/><path  fill="none" stroke="#d81692" d="M89.583 21.5l6.882 12.963"/><path  fill="none" stroke="#d81692" d="M67.802 47.5l16-11"/><path  fill="none" stroke="#d81692" d="M81.045 36.5l11-15"/><path  fill="none" stroke="#d81692" d="M76.25 9.5l16 12"/><path  fill="none" stroke="#d81692" d="M64.917 20.5l28 1"/><path  fill="none" stroke="#d81692" d="M61.421 2.5l18 7"/><path  fill="none" stroke="#d81692" d="M62.635 2.5l6 18"/><path  fill="none" stroke="#d81692" d="M57.39 34.5l12-14"/><path  fill="none" stroke="#d81692" d="M81.401 34.5l-15-14"/><path  fill="none" stroke="#d81692" d="M83.5 36.5l-27.675-2"/><path  fill="none" stroke="#d81692" d="M71.225 47.5l-14-13"/><path  fill="none" stroke="#d81692" d="M44.5 53.5l14-19"/><path  fill="none" stroke="#d81692" d="M43.5 31.5l16 3"/><path  fill="none" stroke="#d81692" d="M43.5 31.5v22"/><path  fill="none" stroke="#d81692" d="M43.5 31.5l12-17"/><path  fill="none" stroke="#d81692" d="M64.855 2.5l-13 12"/><path  fill="none" stroke="#d81692" d="M70.471 21.5l-19-7"/><path  fill="none" stroke="#d81692" d="M59.172 34.5l-7-20"/><text  transform="translate(0 78)" fill="#707070" font-size="15" font-family="Avenir-Book, Avenir"><tspan x="0" y="0">GraphQL Live Query</tspan></text></svg>